<svg width="31" height="30" viewBox="0 0 31 30" fill="none" xmlns="http://www.w3.org/2000/svg">
<path fill-rule="evenodd" clip-rule="evenodd" d="M15.7393 0C11.6655 0 11.1547 0.0172674 9.55478 0.0902666C7.9582 0.163087 6.8678 0.416679 5.91369 0.78751C4.92731 1.17079 4.09079 1.68369 3.25684 2.51758C2.42294 3.35153 1.91004 4.18805 1.52677 5.17443C1.15594 6.12854 0.902345 7.21894 0.829524 8.81552C0.756525 10.4154 0.739258 10.9262 0.739258 15C0.739258 19.0738 0.756525 19.5846 0.829524 21.1845C0.902345 22.7811 1.15594 23.8715 1.52677 24.8256C1.91004 25.812 2.42294 26.6485 3.25684 27.4824C4.09079 28.3163 4.92731 28.8292 5.91369 29.2125C6.8678 29.5833 7.9582 29.8369 9.55478 29.9097C11.1547 29.9827 11.6655 30 15.7393 30C19.813 30 20.3238 29.9827 21.9237 29.9097C23.5203 29.8369 24.6107 29.5833 25.5648 29.2125C26.5512 28.8292 27.3877 28.3163 28.2217 27.4824C29.0556 26.6485 29.5685 25.812 29.9518 24.8256C30.3226 23.8715 30.5762 22.7811 30.649 21.1845C30.722 19.5846 30.7393 19.0738 30.7393 15C30.7393 10.9262 30.722 10.4154 30.649 8.81552C30.5762 7.21894 30.3226 6.12854 29.9518 5.17443C29.5685 4.18805 29.0556 3.35153 28.2217 2.51758C27.3877 1.68369 26.5512 1.17079 25.5648 0.78751C24.6107 0.416679 23.5203 0.163087 21.9237 0.0902666C20.3238 0.0172674 19.813 0 15.7393 0ZM15.7402 2C19.9741 2 20.4757 2.01618 22.1478 2.09247C23.6938 2.16296 24.5334 2.42129 25.0922 2.63845C25.8324 2.92611 26.3606 3.26973 26.9155 3.82465C27.4704 4.37951 27.814 4.90774 28.1017 5.64791C28.3188 6.20668 28.5772 7.0463 28.6477 8.59236C28.7239 10.2644 28.7401 10.766 28.7401 15C28.7401 19.234 28.7239 19.7356 28.6477 21.4076C28.5772 22.9537 28.3188 23.7933 28.1017 24.3521C27.814 25.0923 27.4704 25.6205 26.9155 26.1754C26.3606 26.7303 25.8324 27.0739 25.0922 27.3615C24.5334 27.5787 23.6938 27.837 22.1478 27.9075C20.4759 27.9838 19.9745 28 15.7402 28C11.5058 28 11.0044 27.9838 9.33248 27.9075C7.78642 27.837 6.9468 27.5787 6.38804 27.3615C5.64787 27.0739 5.11963 26.7303 4.56477 26.1754C4.00991 25.6205 3.66623 25.0923 3.37857 24.3521C3.16141 23.7933 2.90309 22.9537 2.83259 21.4076C2.7563 19.7356 2.74012 19.234 2.74012 15C2.74012 10.766 2.7563 10.2644 2.83259 8.59236C2.90309 7.0463 3.16141 6.20668 3.37857 5.64791C3.66623 4.90774 4.00985 4.37951 4.56477 3.82465C5.11963 3.26973 5.64787 2.92611 6.38804 2.63845C6.9468 2.42129 7.78642 2.16296 9.33248 2.09247C11.0045 2.01618 11.5061 2 15.7402 2ZM8.03657 15.0001C8.03657 10.7459 11.4852 7.29733 15.7393 7.29733C19.9934 7.29733 23.442 10.7459 23.442 15.0001C23.442 19.2541 19.9934 22.7027 15.7393 22.7027C11.4852 22.7027 8.03657 19.2541 8.03657 15.0001ZM15.7393 20.0001C12.9778 20.0001 10.7393 17.7615 10.7393 15.0001C10.7393 12.2386 12.9778 10.0001 15.7393 10.0001C18.5007 10.0001 20.7393 12.2386 20.7393 15.0001C20.7393 17.7615 18.5007 20.0001 15.7393 20.0001ZM23.7463 8.79288C24.7404 8.79288 25.5463 7.98703 25.5463 6.9929C25.5463 5.99878 24.7404 5.19287 23.7463 5.19287C22.7522 5.19287 21.9463 5.99878 21.9463 6.9929C21.9463 7.98703 22.7522 8.79288 23.7463 8.79288Z" fill="black"/>
</svg>
