<svg width="32" height="32" viewBox="0 0 32 32" fill="none" xmlns="http://www.w3.org/2000/svg">
<path fill-rule="evenodd" clip-rule="evenodd" d="M0 15.9991C0 24.835 7.16195 32 16 32C24.8363 32 32 24.835 32 15.9991C32 7.16328 24.8363 0 16 0C7.16195 0 0 7.16328 0 15.9991ZM10.8971 29.037C5.68987 26.9968 2 21.9303 2 16C2 8.26616 8.26782 2 16 2C23.7322 2 30 8.26616 30 16C30 23.7322 23.7322 30 16 30C14.5555 30 13.1639 29.7816 11.8551 29.3745C12.4243 28.4446 13.2781 26.9207 13.5941 25.7045C13.7646 25.0493 14.4661 22.377 14.4661 22.377C14.9228 23.2474 16.2565 23.9853 17.6762 23.9853C21.8972 23.9853 24.9401 20.1019 24.9401 15.2769C24.9401 10.6522 21.1658 7.19064 16.3094 7.19064C10.2683 7.19064 7.05992 11.2478 7.05992 15.6641C7.05992 17.7159 8.15199 20.274 9.8993 21.0881C10.1657 21.2105 10.308 21.1559 10.3692 20.8994C10.388 20.821 10.4379 20.6184 10.4978 20.3757C10.5857 20.0189 10.695 19.5755 10.7581 19.3126C10.7912 19.1703 10.7746 19.0495 10.6604 18.9105C10.0813 18.209 9.61967 16.9183 9.61967 15.7154C9.61967 12.6278 11.9577 9.63952 15.9404 9.63952C19.3805 9.63952 21.788 11.9825 21.788 15.3348C21.788 19.1223 19.8752 21.7466 17.3866 21.7466C16.0132 21.7466 14.984 20.6115 15.3133 19.2166C15.4562 18.6153 15.6472 17.9968 15.833 17.3955C16.1614 16.3324 16.4732 15.3228 16.4732 14.5555C16.4732 13.48 15.8958 12.5831 14.7028 12.5831C13.2963 12.5831 12.1695 14.0359 12.1695 15.9835C12.1695 17.2228 12.5881 18.0617 12.5881 18.0617C12.5881 18.0617 11.1999 23.9274 10.9467 25.0195C10.6654 26.2307 10.7746 27.93 10.8971 29.037Z" fill="black"/>
</svg>
