<svg width="256" height="60" viewBox="0 0 256 60" fill="none" xmlns="http://www.w3.org/2000/svg">
<path d="M212.374 4.479V0H182.705V29.86H212.374V25.381H189.935V16.9829H203.736V12.4106H189.935V4.479H212.374ZM146.183 0V29.86H175.852V25.381H153.412V0H146.183ZM12.5809 4.479H33.7057V0H9.29488C4.13106 0 0 3.82582 0 8.39813C0 13.0638 4.13106 16.8896 9.20099 16.9829H22.6269C25.4436 16.9829 27.6969 18.8491 27.6969 21.182C27.6969 23.5148 25.4436 25.381 22.6269 25.381H2.53497V29.86H26.0069C31.2646 29.86 35.5834 25.9409 35.5834 21.182C35.5834 16.3297 31.2646 12.4106 26.0069 12.4106H12.5809C9.8582 12.4106 7.69879 10.6376 7.69879 8.39813C7.79268 6.15863 9.95209 4.479 12.5809 4.479ZM93.6999 0L79.2412 29.86H84.1234L96.4226 4.38569H99.1454L111.539 29.86H119.988L105.624 0H93.6999ZM135.104 0H127.781V29.86H135.104V0ZM76.8001 0H42.3433V4.38569H55.8632V29.86H63.1864V4.479H76.7062V0H76.8001ZM253.591 8.39813C253.591 3.7325 249.835 0 245.141 0H220.636V29.86H227.959V4.479H242.23C244.577 4.479 246.455 6.25194 246.455 8.49145C246.455 10.7309 244.577 12.5039 242.23 12.5039H231.339V13.9036L246.643 29.86H255.75L243.075 16.9829H244.859C249.553 16.9829 253.591 12.9705 253.591 8.39813ZM40.3717 59.8134L41.3106 57.5739H45.6294L46.5683 59.8134H49.1971L44.6905 48.9891H42.4372L37.9306 59.8134H40.3717ZM43.47 52.1617L44.6905 55.2411H42.2495L43.47 52.1617ZM57.3654 59.8134V51.3219H60.6514V48.9891H51.6382V51.3219H54.9243V59.8134H57.3654ZM118.205 51.1353C118.956 51.1353 119.707 51.3219 120.458 51.7885L121.585 49.9222C120.927 49.269 119.613 48.8025 118.298 48.8025C116.515 48.8025 115.106 49.3624 114.074 50.3888C113.041 51.4152 112.571 52.8149 112.571 54.4012C112.571 56.0809 113.135 57.4806 114.167 58.507C115.2 59.5334 116.608 60 118.298 60C119.05 60 119.707 59.9067 120.364 59.6267C121.021 59.4401 121.491 59.0669 121.866 58.6936L120.927 56.8274C120.27 57.3872 119.425 57.5739 118.58 57.5739C117.641 57.5739 116.796 57.2939 116.233 56.6407C115.67 55.9876 115.294 55.2411 115.294 54.3079C115.294 53.2815 115.576 52.4417 116.139 51.8818C116.608 51.4152 117.266 51.1353 118.205 51.1353ZM228.335 57.6672C227.49 57.6672 226.551 57.2939 225.988 56.5474L224.579 58.2271C224.861 58.7869 225.33 59.1602 225.988 59.5334C226.739 59.8134 227.49 60 228.241 60C229.274 60 230.213 59.7201 230.87 59.0669C231.621 58.507 231.903 57.6672 231.903 56.7341C231.903 53.1882 227.396 53.6547 227.396 51.8818C227.396 51.4152 227.771 51.042 228.523 51.042C229.274 51.042 229.649 51.2286 230.213 51.7885L231.527 49.9222C230.776 49.1757 229.743 48.7092 228.335 48.7092C227.302 48.7092 226.457 48.9891 225.8 49.6423C225.143 50.2022 224.861 50.9487 224.861 51.8818C224.861 53.9347 226.551 54.7745 227.771 55.3344C228.616 55.7076 229.368 56.1742 229.368 56.7341C229.368 57.2939 228.992 57.6672 228.335 57.6672ZM69.7585 51.1353C70.5096 51.1353 71.2607 51.3219 72.0118 51.7885L73.1385 49.9222C72.4813 49.269 71.1669 48.8025 69.8524 48.8025C68.0686 48.8025 66.6602 49.3624 65.6275 50.3888C64.5947 51.4152 64.1253 52.8149 64.1253 54.4012C64.1253 56.0809 64.6886 57.4806 65.7214 58.507C66.7541 59.5334 68.1625 60 69.8524 60C70.6035 60 71.2607 59.9067 71.918 59.6267C72.5752 59.4401 73.0446 59.0669 73.4202 58.6936L72.4813 56.8274C71.8241 57.3872 70.9791 57.5739 70.1341 57.5739C69.1952 57.5739 68.3502 57.2939 67.7869 56.6407C67.2236 55.9876 66.848 55.2411 66.848 54.3079C66.848 53.2815 67.1297 52.4417 67.693 51.8818C68.1624 51.4152 68.8197 51.1353 69.7585 51.1353ZM29.1052 48.9891H26.5702L24.5047 55.8009L22.6269 48.9891H19.8103L23.0025 59.8134H25.3497L27.603 52.8149L29.8563 59.8134H32.2035L35.3018 48.9891H32.8607L30.9829 55.8009L29.1052 48.9891ZM219.791 51.3219V48.9891H213.313V59.8134H219.885V57.4806H215.754V55.521H219.228V53.1882H215.754V51.3219H219.791ZM145.901 51.3219V48.9891H139.423V59.8134H145.995V57.4806H141.864V55.521H145.338V53.1882H141.864V51.3219H145.901ZM166.275 57.6672C165.43 57.6672 164.491 57.2939 163.928 56.5474L162.52 58.2271C162.801 58.7869 163.271 59.1602 163.928 59.5334C164.679 59.8134 165.43 60 166.181 60C167.214 60 168.153 59.7201 168.81 59.0669C169.561 58.507 169.843 57.6672 169.843 56.7341C169.843 53.1882 165.336 53.6547 165.336 51.8818C165.336 51.4152 165.712 51.042 166.463 51.042C167.214 51.042 167.589 51.2286 168.153 51.7885L169.467 49.9222C168.716 49.1757 167.683 48.7092 166.275 48.7092C165.242 48.7092 164.397 48.9891 163.74 49.6423C163.083 50.2022 162.801 50.9487 162.801 51.8818C162.801 53.9347 164.491 54.7745 165.712 55.3344C166.557 55.7076 167.308 56.1742 167.308 56.7341C167.308 57.2939 166.932 57.6672 166.275 57.6672ZM175.945 50.3888C174.913 51.4152 174.349 52.8149 174.349 54.4012C174.349 56.0809 174.913 57.4806 175.945 58.507C177.072 59.5334 178.387 60 180.077 60C181.767 60 183.081 59.4401 184.208 58.4137C185.334 57.3872 185.898 55.9876 185.898 54.4012C185.898 52.7216 185.334 51.3219 184.301 50.2955C183.269 49.2691 181.86 48.8025 180.17 48.8025C178.387 48.8025 176.978 49.3624 175.945 50.3888ZM183.269 54.4012C183.269 55.3344 182.987 56.1742 182.424 56.7341C181.86 57.2939 181.109 57.6672 180.077 57.6672C179.232 57.6672 178.48 57.3872 177.823 56.7341C177.26 56.0809 176.884 55.3344 176.884 54.4012C176.884 53.4681 177.166 52.6283 177.729 52.0684C178.293 51.5085 179.044 51.1353 179.983 51.1353C180.828 51.1353 181.579 51.4152 182.236 52.0684C182.893 52.6283 183.269 53.3748 183.269 54.4012ZM198.76 52.4417C198.76 50.2955 197.54 48.9891 194.723 48.9891C194.629 48.9891 194.066 48.9891 192.939 48.9891C191.812 48.9891 191.249 48.9891 190.968 48.9891V59.8134H193.502V55.9876H194.441L197.07 59.8134H200.075L196.882 55.521C198.197 54.9611 198.76 53.8414 198.76 52.4417ZM194.441 53.6547H193.502V51.3219C194.16 51.3219 194.535 51.3219 194.629 51.3219C195.662 51.3219 196.131 51.6952 196.131 52.535C196.131 53.2815 195.568 53.6547 194.441 53.6547ZM78.1145 59.8134H80.6495V55.4277H84.5928V59.8134H87.1278V48.9891H84.5928V53.0949H80.6495V48.9891H78.1145V59.8134ZM97.8309 59.8134H100.366L101.305 57.5739H105.624L106.563 59.8134H109.191L104.685 48.9891H102.338L97.8309 59.8134ZM104.591 55.2411H102.15L103.37 52.1617L104.591 55.2411ZM154.445 57.6672C153.6 57.6672 152.661 57.2939 152.098 56.5474L150.69 58.2271C150.971 58.7869 151.441 59.1602 152.098 59.5334C152.849 59.8134 153.6 60 154.351 60C155.384 60 156.323 59.7201 156.98 59.0669C157.731 58.507 158.013 57.6672 158.013 56.7341C158.013 53.1882 153.506 53.6547 153.506 51.8818C153.506 51.4152 153.882 51.042 154.633 51.042C155.384 51.042 155.76 51.2286 156.323 51.7885L157.637 49.9222C156.886 49.1757 155.854 48.7092 154.445 48.7092C153.412 48.7092 152.567 48.9891 151.91 49.6423C151.253 50.2022 150.971 50.9487 150.971 51.8818C150.971 53.9347 152.661 54.7745 153.882 55.3344C154.727 55.7076 155.478 56.1742 155.478 56.7341C155.478 57.2939 155.102 57.6672 154.445 57.6672ZM207.304 59.8134V48.9891H204.769V59.8134H207.304ZM125.34 54.4012C125.34 56.0809 125.903 57.4806 126.936 58.507C127.969 59.5334 129.377 60 131.067 60C131.818 60 132.476 59.9067 133.133 59.6267C133.79 59.4401 134.259 59.0669 134.635 58.6936L133.696 56.8274C133.039 57.3872 132.194 57.5739 131.349 57.5739C130.41 57.5739 129.565 57.2939 129.002 56.6407C128.438 55.9876 128.063 55.2411 128.063 54.3079C128.063 53.2815 128.344 52.4417 128.908 51.8818C129.471 51.3219 130.222 51.042 131.067 51.042C131.818 51.042 132.569 51.2286 133.32 51.6952L134.447 49.8289C133.79 49.1757 132.475 48.7092 131.161 48.7092C129.377 48.7092 127.969 49.2691 126.936 50.2955C125.809 51.4152 125.34 52.7216 125.34 54.4012Z" fill="black"/>
</svg>
